<mxfile host="drawio-plugin" modified="2022-07-14T20:11:26.463Z" agent="5.0 (Windows NT 6.2; Win64; x64) AppleWebKit/537.36 (KHTML, like Gecko) Chrome/97.0.4692.45 Safari/537.36" etag="4kXkyGtqu3OzFcozfyJS" version="15.5.4" type="embed"><diagram id="nMybgRbnOBuEh0HEqePO" name="Page-1"><mxGraphModel dx="1859" dy="1620" grid="1" gridSize="10" guides="1" tooltips="1" connect="1" arrows="1" fold="1" page="1" pageScale="1" pageWidth="850" pageHeight="1100" background="#ffffff" math="0" shadow="0"><root><mxCell id="0"/><mxCell id="1" parent="0"/><mxCell id="7" style="edgeStyle=orthogonalEdgeStyle;rounded=0;orthogonalLoop=1;jettySize=auto;html=1;fontColor=default;" parent="1" edge="1"><mxGeometry relative="1" as="geometry"><mxPoint x="-307" y="-741" as="targetPoint"/><mxPoint x="-307" y="-771" as="sourcePoint"/></mxGeometry></mxCell><mxCell id="25" style="edgeStyle=orthogonalEdgeStyle;rounded=0;orthogonalLoop=1;jettySize=auto;html=1;fontFamily=Tahoma;fontColor=#FFFFFF;" parent="1" source="24" edge="1"><mxGeometry relative="1" as="geometry"><mxPoint x="-347" y="-751" as="targetPoint"/></mxGeometry></mxCell><mxCell id="24" value="&lt;p style=&quot;margin: 0px ; margin-top: 4px ; text-align: center&quot;&gt;&lt;b&gt;&lt;font color=&quot;#1a1a1a&quot;&gt;&lt;u&gt;Field&lt;/u&gt;&lt;/font&gt;&lt;/b&gt;&lt;/p&gt;&lt;hr size=&quot;1&quot;&gt;&lt;p style=&quot;margin: 0px ; margin-left: 4px&quot;&gt;&lt;font color=&quot;#ffffff&quot;&gt;&amp;nbsp;- value: None&lt;/font&gt;&lt;/p&gt;&lt;p style=&quot;margin: 0px ; margin-left: 4px&quot;&gt;&lt;span&gt;&lt;font color=&quot;#ffffff&quot;&gt;+ value&lt;/font&gt;&lt;/span&gt;&lt;/p&gt;&lt;hr size=&quot;1&quot;&gt;&lt;p style=&quot;margin: 0px ; margin-left: 4px&quot;&gt;&lt;font color=&quot;#ffffff&quot;&gt;+ __&lt;span style=&quot;background-color: rgb(43 , 43 , 43) ; font-family: &amp;#34;jetbrains mono&amp;#34; , monospace&quot;&gt;repr__&lt;/span&gt;&lt;span&gt;(): str&lt;/span&gt;&lt;/font&gt;&lt;/p&gt;&lt;p style=&quot;margin: 0px ; margin-left: 4px&quot;&gt;&lt;font color=&quot;#ffffff&quot;&gt;&lt;span&gt;+ __str__(): str&lt;/span&gt;&lt;/font&gt;&lt;/p&gt;&lt;p style=&quot;margin: 0px ; margin-left: 4px&quot;&gt;&lt;font color=&quot;#ffffff&quot;&gt;&lt;span&gt;+__eq__(): bool&lt;/span&gt;&lt;/font&gt;&lt;/p&gt;" style="verticalAlign=top;align=left;overflow=fill;fontSize=12;fontFamily=Helvetica;html=1;rounded=1;shadow=1;glass=1;labelBackgroundColor=none;labelBorderColor=none;sketch=1;fontColor=default;strokeColor=default;fillColor=default;gradientColor=none;" parent="1" vertex="1"><mxGeometry x="-820" y="-720" width="160" height="120" as="geometry"/></mxCell><mxCell id="27" value="&lt;p style=&quot;margin: 0px ; margin-top: 4px ; text-align: center&quot;&gt;&lt;b&gt;&lt;u&gt;Name&lt;/u&gt;&lt;/b&gt;&lt;/p&gt;&lt;p style=&quot;margin: 0px ; margin-top: 4px ; text-align: center&quot;&gt;&lt;b&gt;&lt;u&gt;&lt;br&gt;&lt;/u&gt;&lt;/b&gt;&lt;/p&gt;&lt;p style=&quot;margin: 0px 0px 0px 4px&quot;&gt;&lt;font color=&quot;#ffffff&quot;&gt;-&amp;nbsp; value():&amp;nbsp;&lt;/font&gt;&lt;/p&gt;&lt;p style=&quot;margin: 0px 0px 0px 4px&quot;&gt;&lt;span&gt;&lt;font color=&quot;#ffffff&quot;&gt;+ value(): str&lt;/font&gt;&lt;/span&gt;&lt;br&gt;&lt;/p&gt;&lt;p style=&quot;margin: 0px ; margin-top: 4px ; text-align: center&quot;&gt;&lt;b&gt;&lt;u&gt;&lt;br&gt;&lt;/u&gt;&lt;/b&gt;&lt;/p&gt;&lt;p style=&quot;margin: 0px ; margin-top: 4px ; text-align: center&quot;&gt;&lt;b&gt;&lt;u&gt;&lt;br&gt;&lt;/u&gt;&lt;/b&gt;&lt;/p&gt;" style="verticalAlign=top;align=left;overflow=fill;fontSize=12;fontFamily=Helvetica;html=1;rounded=1;shadow=1;glass=1;labelBackgroundColor=none;labelBorderColor=none;sketch=1;fontColor=#000000;strokeColor=default;fillColor=default;gradientColor=none;" parent="1" vertex="1"><mxGeometry x="-550" y="-990" width="140" height="70" as="geometry"/></mxCell><mxCell id="31" value="&lt;p style=&quot;margin: 0px ; margin-top: 4px ; text-align: center&quot;&gt;&lt;b&gt;&lt;u&gt;Email&lt;/u&gt;&lt;/b&gt;&lt;/p&gt;&lt;p style=&quot;margin: 0px ; margin-top: 4px ; text-align: center&quot;&gt;&lt;b&gt;&lt;u&gt;&lt;br&gt;&lt;/u&gt;&lt;/b&gt;&lt;/p&gt;&lt;p style=&quot;margin: 0px 0px 0px 4px&quot;&gt;&lt;font color=&quot;#ffffff&quot;&gt;-&amp;nbsp; value():&amp;nbsp;&lt;/font&gt;&lt;/p&gt;&lt;p style=&quot;margin: 0px 0px 0px 4px&quot;&gt;&lt;span&gt;&lt;font color=&quot;#ffffff&quot;&gt;+ value(): str&lt;/font&gt;&lt;/span&gt;&lt;br&gt;&lt;/p&gt;&lt;p style=&quot;margin: 0px ; margin-top: 4px ; text-align: center&quot;&gt;&lt;b&gt;&lt;u&gt;&lt;br&gt;&lt;/u&gt;&lt;/b&gt;&lt;/p&gt;&lt;p style=&quot;margin: 0px ; margin-top: 4px ; text-align: center&quot;&gt;&lt;b&gt;&lt;u&gt;&lt;br&gt;&lt;/u&gt;&lt;/b&gt;&lt;/p&gt;" style="verticalAlign=top;align=left;overflow=fill;fontSize=12;fontFamily=Helvetica;html=1;rounded=1;shadow=1;glass=1;labelBackgroundColor=none;labelBorderColor=none;sketch=1;fontColor=#000000;strokeColor=default;fillColor=default;gradientColor=none;" parent="1" vertex="1"><mxGeometry x="-550" y="-400" width="140" height="70" as="geometry"/></mxCell><mxCell id="42" value="&lt;p style=&quot;margin: 0px ; margin-top: 4px ; text-align: center&quot;&gt;&lt;b&gt;&lt;font color=&quot;#1a1a1a&quot;&gt;&lt;u&gt;Record&lt;/u&gt;&lt;/font&gt;&lt;/b&gt;&lt;/p&gt;&lt;hr size=&quot;1&quot;&gt;&lt;p style=&quot;margin: 0px ; margin-left: 4px&quot;&gt;&lt;font color=&quot;#ffffff&quot;&gt;+ name&lt;/font&gt;&lt;/p&gt;&lt;p style=&quot;margin: 0px ; margin-left: 4px&quot;&gt;&lt;span&gt;&lt;font color=&quot;#ffffff&quot;&gt;+ phone_list&lt;/font&gt;&lt;/span&gt;&lt;/p&gt;&lt;p style=&quot;margin: 0px ; margin-left: 4px&quot;&gt;&lt;font color=&quot;#ffffff&quot;&gt;+ birthday&lt;/font&gt;&lt;/p&gt;&lt;p style=&quot;margin: 0px ; margin-left: 4px&quot;&gt;&lt;font color=&quot;#ffffff&quot;&gt;+ address&lt;/font&gt;&lt;/p&gt;&lt;p style=&quot;margin: 0px ; margin-left: 4px&quot;&gt;&lt;font color=&quot;#ffffff&quot;&gt;+ email&lt;/font&gt;&lt;/p&gt;&lt;hr size=&quot;1&quot;&gt;&lt;p style=&quot;margin: 0px ; margin-left: 4px&quot;&gt;&lt;span style=&quot;color: rgb(255 , 255 , 255)&quot;&gt;+ __str__(): str&lt;/span&gt;&lt;br&gt;&lt;/p&gt;&lt;p style=&quot;margin: 0px ; margin-left: 4px&quot;&gt;&lt;font color=&quot;#ffffff&quot;&gt;&lt;span&gt;+&lt;/span&gt;&lt;/font&gt;&lt;span style=&quot;background-color: rgb(43 , 43 , 43) ; font-family: &amp;#34;jetbrains mono&amp;#34; , monospace&quot;&gt;&lt;font color=&quot;#ffffff&quot;&gt;add_phone&lt;/font&gt;&lt;/span&gt;&lt;span style=&quot;color: rgb(255 , 255 , 255)&quot;&gt;():&amp;nbsp;&lt;/span&gt;&lt;span style=&quot;color: rgb(255 , 255 , 255)&quot;&gt;None&lt;/span&gt;&lt;/p&gt;&lt;p style=&quot;margin: 0px 0px 0px 4px&quot;&gt;&lt;font color=&quot;#ffffff&quot;&gt;+del&lt;/font&gt;&lt;span style=&quot;background-color: rgb(43 , 43 , 43) ; font-family: &amp;#34;jetbrains mono&amp;#34; , monospace&quot;&gt;&lt;font color=&quot;#ffffff&quot;&gt;_phone&lt;/font&gt;&lt;/span&gt;&lt;span style=&quot;color: rgb(255 , 255 , 255)&quot;&gt;():&amp;nbsp;&lt;/span&gt;&lt;span style=&quot;color: rgb(255 , 255 , 255)&quot;&gt;None&lt;/span&gt;&lt;/p&gt;&lt;p style=&quot;margin: 0px 0px 0px 4px&quot;&gt;&lt;font color=&quot;#ffffff&quot;&gt;+edit&lt;/font&gt;&lt;span style=&quot;background-color: rgb(43 , 43 , 43) ; font-family: &amp;#34;jetbrains mono&amp;#34; , monospace&quot;&gt;&lt;font color=&quot;#ffffff&quot;&gt;_phone&lt;/font&gt;&lt;/span&gt;&lt;span style=&quot;color: rgb(255 , 255 , 255)&quot;&gt;():&amp;nbsp;&lt;/span&gt;&lt;span style=&quot;color: rgb(255 , 255 , 255)&quot;&gt;None&lt;/span&gt;&lt;/p&gt;&lt;p style=&quot;margin: 0px 0px 0px 4px&quot;&gt;&lt;font color=&quot;#ffffff&quot;&gt;+&lt;/font&gt;&lt;span style=&quot;background-color: rgb(43 , 43 , 43) ; font-family: &amp;#34;jetbrains mono&amp;#34; , monospace&quot;&gt;&lt;font color=&quot;#ffffff&quot;&gt;days_to_birthday&lt;/font&gt;&lt;/span&gt;&lt;span style=&quot;color: rgb(255 , 255 , 255)&quot;&gt;(): str&lt;/span&gt;&lt;/p&gt;&lt;div&gt;&lt;span style=&quot;color: rgb(255 , 255 , 255)&quot;&gt;&lt;br&gt;&lt;/span&gt;&lt;/div&gt;&lt;div&gt;&lt;span style=&quot;color: rgb(255 , 255 , 255)&quot;&gt;&lt;br&gt;&lt;/span&gt;&lt;/div&gt;&lt;div&gt;&lt;span style=&quot;color: rgb(255 , 255 , 255)&quot;&gt;&lt;br&gt;&lt;/span&gt;&lt;/div&gt;&lt;p style=&quot;margin: 0px ; margin-left: 4px&quot;&gt;&lt;span style=&quot;color: rgb(255 , 255 , 255)&quot;&gt;&lt;br&gt;&lt;/span&gt;&lt;/p&gt;" style="verticalAlign=top;align=left;overflow=fill;fontSize=12;fontFamily=Helvetica;html=1;rounded=1;shadow=1;glass=1;labelBackgroundColor=none;labelBorderColor=none;sketch=1;fontColor=default;strokeColor=default;fillColor=default;gradientColor=none;" parent="1" vertex="1"><mxGeometry x="-225" y="-720" width="175" height="210" as="geometry"/></mxCell><mxCell id="43" value="&lt;p style=&quot;margin: 0px ; margin-top: 4px ; text-align: center&quot;&gt;&lt;b&gt;&lt;font color=&quot;#1a1a1a&quot;&gt;&lt;u&gt;AddressBook&lt;/u&gt;&lt;/font&gt;&lt;/b&gt;&lt;/p&gt;&lt;p style=&quot;margin: 0px ; margin-left: 4px&quot;&gt;&lt;br&gt;&lt;/p&gt;&lt;p style=&quot;margin: 0px ; margin-left: 4px&quot;&gt;&lt;br&gt;&lt;/p&gt;&lt;p style=&quot;margin: 0px ; margin-left: 4px&quot;&gt;&lt;font color=&quot;#ffffff&quot;&gt;&lt;span&gt;+ add_record(): None&lt;/span&gt;&lt;/font&gt;&lt;/p&gt;&lt;p style=&quot;margin: 0px ; margin-left: 4px&quot;&gt;&lt;font color=&quot;#ffffff&quot;&gt;&lt;span&gt;+iterator():&lt;/span&gt;&lt;/font&gt;&lt;/p&gt;" style="verticalAlign=top;align=left;overflow=fill;fontSize=12;fontFamily=Helvetica;html=1;rounded=1;shadow=1;glass=1;labelBackgroundColor=none;labelBorderColor=none;sketch=1;fontColor=default;strokeColor=default;fillColor=default;gradientColor=none;" parent="1" vertex="1"><mxGeometry x="-217.5" y="-970" width="160" height="100" as="geometry"/></mxCell><mxCell id="45" value="&lt;p style=&quot;margin: 0px ; margin-top: 4px ; text-align: center&quot;&gt;&lt;b&gt;&lt;font color=&quot;#1a1a1a&quot;&gt;&lt;u&gt;InputError&lt;/u&gt;&lt;/font&gt;&lt;/b&gt;&lt;/p&gt;&lt;hr size=&quot;1&quot;&gt;&lt;p style=&quot;margin: 0px ; margin-left: 4px&quot;&gt;&lt;font color=&quot;#ffffff&quot;&gt;+ func: None&lt;/font&gt;&lt;/p&gt;&lt;hr size=&quot;1&quot;&gt;&lt;p style=&quot;margin: 0px ; margin-left: 4px&quot;&gt;&lt;font color=&quot;#ffffff&quot;&gt;+ __call__&lt;span&gt;(): str&lt;/span&gt;&lt;/font&gt;&lt;/p&gt;&lt;p style=&quot;margin: 0px ; margin-left: 4px&quot;&gt;&lt;br&gt;&lt;/p&gt;" style="verticalAlign=top;align=left;overflow=fill;fontSize=12;fontFamily=Helvetica;html=1;rounded=1;shadow=1;glass=1;labelBackgroundColor=none;labelBorderColor=none;sketch=1;fontColor=default;strokeColor=default;fillColor=default;gradientColor=none;" parent="1" vertex="1"><mxGeometry x="-230" y="-350" width="160" height="90" as="geometry"/></mxCell><mxCell id="46" style="edgeStyle=orthogonalEdgeStyle;rounded=0;orthogonalLoop=1;jettySize=auto;html=1;exitX=0.5;exitY=1;exitDx=0;exitDy=0;fontColor=#FFFFFF;" parent="1" source="45" target="45" edge="1"><mxGeometry relative="1" as="geometry"/></mxCell><mxCell id="29" value="&lt;p style=&quot;margin: 0px ; margin-top: 4px ; text-align: center&quot;&gt;&lt;b&gt;&lt;u&gt;Birthday&lt;/u&gt;&lt;/b&gt;&lt;/p&gt;&lt;p style=&quot;margin: 0px ; margin-top: 4px ; text-align: center&quot;&gt;&lt;b&gt;&lt;u&gt;&lt;br&gt;&lt;/u&gt;&lt;/b&gt;&lt;/p&gt;&lt;p style=&quot;margin: 0px 0px 0px 4px&quot;&gt;&lt;font color=&quot;#ffffff&quot;&gt;-&amp;nbsp; value():&amp;nbsp;&lt;/font&gt;&lt;/p&gt;&lt;p style=&quot;margin: 0px 0px 0px 4px&quot;&gt;&lt;span&gt;&lt;font color=&quot;#ffffff&quot;&gt;+ value(): str&lt;/font&gt;&lt;/span&gt;&lt;br&gt;&lt;/p&gt;&lt;p style=&quot;margin: 0px ; margin-top: 4px ; text-align: center&quot;&gt;&lt;b&gt;&lt;u&gt;&lt;br&gt;&lt;/u&gt;&lt;/b&gt;&lt;/p&gt;&lt;p style=&quot;margin: 0px ; margin-top: 4px ; text-align: center&quot;&gt;&lt;b&gt;&lt;u&gt;&lt;br&gt;&lt;/u&gt;&lt;/b&gt;&lt;/p&gt;" style="verticalAlign=top;align=left;overflow=fill;fontSize=12;fontFamily=Helvetica;html=1;rounded=1;shadow=1;glass=1;labelBackgroundColor=none;labelBorderColor=none;sketch=1;fontColor=#000000;strokeColor=default;fillColor=default;gradientColor=none;" parent="1" vertex="1"><mxGeometry x="-550" y="-695" width="140" height="70" as="geometry"/></mxCell><mxCell id="30" value="&lt;p style=&quot;margin: 0px ; margin-top: 4px ; text-align: center&quot;&gt;&lt;b&gt;&lt;u&gt;Address&lt;/u&gt;&lt;/b&gt;&lt;/p&gt;&lt;p style=&quot;margin: 0px ; margin-top: 4px ; text-align: center&quot;&gt;&lt;b&gt;&lt;u&gt;&lt;br&gt;&lt;/u&gt;&lt;/b&gt;&lt;/p&gt;&lt;p style=&quot;margin: 0px 0px 0px 4px&quot;&gt;&lt;font color=&quot;#ffffff&quot;&gt;-&amp;nbsp; value():&amp;nbsp;&lt;/font&gt;&lt;/p&gt;&lt;p style=&quot;margin: 0px 0px 0px 4px&quot;&gt;&lt;span&gt;&lt;font color=&quot;#ffffff&quot;&gt;+ value(): str&lt;/font&gt;&lt;/span&gt;&lt;br&gt;&lt;/p&gt;&lt;p style=&quot;margin: 0px ; margin-top: 4px ; text-align: center&quot;&gt;&lt;b&gt;&lt;u&gt;&lt;br&gt;&lt;/u&gt;&lt;/b&gt;&lt;/p&gt;&lt;p style=&quot;margin: 0px ; margin-top: 4px ; text-align: center&quot;&gt;&lt;b&gt;&lt;u&gt;&lt;br&gt;&lt;/u&gt;&lt;/b&gt;&lt;/p&gt;" style="verticalAlign=top;align=left;overflow=fill;fontSize=12;fontFamily=Helvetica;html=1;rounded=1;shadow=1;glass=1;labelBackgroundColor=none;labelBorderColor=none;sketch=1;fontColor=#000000;strokeColor=default;fillColor=default;gradientColor=none;" parent="1" vertex="1"><mxGeometry x="-550" y="-550" width="140" height="70" as="geometry"/></mxCell><mxCell id="28" value="&lt;p style=&quot;margin: 0px ; margin-top: 4px ; text-align: center&quot;&gt;&lt;b&gt;&lt;u&gt;Phone&lt;/u&gt;&lt;/b&gt;&lt;/p&gt;&lt;p style=&quot;margin: 0px ; margin-top: 4px ; text-align: center&quot;&gt;&lt;b&gt;&lt;u&gt;&lt;br&gt;&lt;/u&gt;&lt;/b&gt;&lt;/p&gt;&lt;p style=&quot;margin: 0px 0px 0px 4px&quot;&gt;&lt;font color=&quot;#ffffff&quot;&gt;-&amp;nbsp; value():&amp;nbsp;&lt;/font&gt;&lt;/p&gt;&lt;p style=&quot;margin: 0px 0px 0px 4px&quot;&gt;&lt;span&gt;&lt;font color=&quot;#ffffff&quot;&gt;+ value(): str&lt;/font&gt;&lt;/span&gt;&lt;br&gt;&lt;/p&gt;&lt;p style=&quot;margin: 0px ; margin-top: 4px ; text-align: center&quot;&gt;&lt;b&gt;&lt;u&gt;&lt;br&gt;&lt;/u&gt;&lt;/b&gt;&lt;/p&gt;&lt;p style=&quot;margin: 0px ; margin-top: 4px ; text-align: center&quot;&gt;&lt;b&gt;&lt;u&gt;&lt;br&gt;&lt;/u&gt;&lt;/b&gt;&lt;/p&gt;" style="verticalAlign=top;align=left;overflow=fill;fontSize=12;fontFamily=Helvetica;html=1;rounded=1;shadow=1;glass=1;labelBackgroundColor=none;labelBorderColor=none;sketch=1;fontColor=#000000;strokeColor=default;fillColor=default;gradientColor=none;" parent="1" vertex="1"><mxGeometry x="-550" y="-840" width="140" height="70" as="geometry"/></mxCell><mxCell id="56" value="" style="endArrow=block;endSize=16;endFill=0;html=1;rounded=0;fontColor=#FFFFFF;strokeColor=#1A1A1A;exitX=0;exitY=0.5;exitDx=0;exitDy=0;entryX=0.5;entryY=0;entryDx=0;entryDy=0;" parent="1" source="27" target="24" edge="1"><mxGeometry width="160" relative="1" as="geometry"><mxPoint x="-430" y="-740" as="sourcePoint"/><mxPoint x="-270" y="-740" as="targetPoint"/><Array as="points"><mxPoint x="-740" y="-955"/></Array></mxGeometry></mxCell><mxCell id="57" value="" style="endArrow=block;endSize=16;endFill=0;html=1;rounded=0;fontColor=#FFFFFF;strokeColor=#1A1A1A;exitX=0;exitY=0.5;exitDx=0;exitDy=0;entryX=0.875;entryY=-0.008;entryDx=0;entryDy=0;entryPerimeter=0;" parent="1" source="28" target="24" edge="1"><mxGeometry width="160" relative="1" as="geometry"><mxPoint x="-430" y="-740" as="sourcePoint"/><mxPoint x="-270" y="-740" as="targetPoint"/><Array as="points"><mxPoint x="-680" y="-805"/></Array></mxGeometry></mxCell><mxCell id="58" value="" style="endArrow=block;endSize=16;endFill=0;html=1;rounded=0;fontColor=#FFFFFF;strokeColor=#1A1A1A;exitX=0;exitY=0.5;exitDx=0;exitDy=0;entryX=1;entryY=0.5;entryDx=0;entryDy=0;" parent="1" source="29" target="24" edge="1"><mxGeometry x="-0.2727" width="160" relative="1" as="geometry"><mxPoint x="-430" y="-620" as="sourcePoint"/><mxPoint x="-270" y="-620" as="targetPoint"/><mxPoint as="offset"/></mxGeometry></mxCell><mxCell id="59" value="" style="endArrow=block;endSize=16;endFill=0;html=1;rounded=0;fontColor=#FFFFFF;strokeColor=#1A1A1A;exitX=0;exitY=0.5;exitDx=0;exitDy=0;" parent="1" source="30" edge="1"><mxGeometry x="0.0775" width="160" relative="1" as="geometry"><mxPoint x="-730" y="-516" as="sourcePoint"/><mxPoint x="-678" y="-600" as="targetPoint"/><Array as="points"><mxPoint x="-678" y="-515"/></Array><mxPoint as="offset"/></mxGeometry></mxCell><mxCell id="60" value="" style="endArrow=block;endSize=16;endFill=0;html=1;rounded=0;fontColor=#FFFFFF;strokeColor=#1A1A1A;exitX=0;exitY=0.5;exitDx=0;exitDy=0;entryX=0.5;entryY=1;entryDx=0;entryDy=0;" parent="1" source="31" target="24" edge="1"><mxGeometry width="160" relative="1" as="geometry"><mxPoint x="-780" y="-516" as="sourcePoint"/><mxPoint x="-620" y="-516" as="targetPoint"/><Array as="points"><mxPoint x="-740" y="-365"/></Array></mxGeometry></mxCell><mxCell id="66" value="1" style="endArrow=open;html=1;endSize=12;startArrow=diamondThin;startSize=14;startFill=1;edgeStyle=orthogonalEdgeStyle;align=left;verticalAlign=bottom;rounded=0;strokeColor=#1A1A1A;exitX=0.5;exitY=1;exitDx=0;exitDy=0;entryX=0.5;entryY=0;entryDx=0;entryDy=0;" edge="1" parent="1" source="43" target="42"><mxGeometry x="-0.8667" relative="1" as="geometry"><mxPoint x="-260" y="-730" as="sourcePoint"/><mxPoint x="-100" y="-730" as="targetPoint"/><mxPoint as="offset"/></mxGeometry></mxCell><mxCell id="78" value="" style="endArrow=diamondThin;endFill=1;endSize=24;html=1;rounded=0;strokeColor=#1A1A1A;" edge="1" parent="1"><mxGeometry width="160" relative="1" as="geometry"><mxPoint x="-320" y="-640" as="sourcePoint"/><mxPoint x="-225" y="-640" as="targetPoint"/></mxGeometry></mxCell><mxCell id="81" value="" style="endArrow=open;endFill=1;endSize=12;html=1;rounded=0;strokeColor=#1A1A1A;" edge="1" parent="1"><mxGeometry width="160" relative="1" as="geometry"><mxPoint x="-320" y="-660" as="sourcePoint"/><mxPoint x="-410" y="-660.5" as="targetPoint"/><Array as="points"><mxPoint x="-360" y="-660.5"/></Array></mxGeometry></mxCell><mxCell id="82" value="" style="endArrow=open;endFill=1;endSize=12;html=1;rounded=0;strokeColor=#1A1A1A;" edge="1" parent="1"><mxGeometry width="160" relative="1" as="geometry"><mxPoint x="-320" y="-799.5" as="sourcePoint"/><mxPoint x="-410" y="-800" as="targetPoint"/><Array as="points"><mxPoint x="-360" y="-800"/></Array></mxGeometry></mxCell><mxCell id="83" value="" style="endArrow=open;endFill=1;endSize=12;html=1;rounded=0;strokeColor=#1A1A1A;" edge="1" parent="1"><mxGeometry width="160" relative="1" as="geometry"><mxPoint x="-320" y="-509.5" as="sourcePoint"/><mxPoint x="-410" y="-510" as="targetPoint"/><Array as="points"><mxPoint x="-360" y="-510"/></Array></mxGeometry></mxCell><mxCell id="84" value="" style="endArrow=open;endFill=1;endSize=12;html=1;rounded=0;strokeColor=#1A1A1A;" edge="1" parent="1"><mxGeometry width="160" relative="1" as="geometry"><mxPoint x="-320" y="-359.5" as="sourcePoint"/><mxPoint x="-410" y="-360" as="targetPoint"/><Array as="points"><mxPoint x="-360" y="-360"/></Array></mxGeometry></mxCell><mxCell id="85" value="" style="endArrow=open;endFill=1;endSize=12;html=1;rounded=0;strokeColor=#1A1A1A;" edge="1" parent="1"><mxGeometry width="160" relative="1" as="geometry"><mxPoint x="-320" y="-949.5" as="sourcePoint"/><mxPoint x="-410" y="-950" as="targetPoint"/><Array as="points"><mxPoint x="-360" y="-950"/></Array></mxGeometry></mxCell><mxCell id="86" value="" style="line;strokeWidth=1;fillColor=none;align=left;verticalAlign=middle;spacingTop=-1;spacingLeft=3;spacingRight=3;rotatable=0;labelPosition=right;points=[];portConstraint=eastwest;strokeColor=#1A1A1A;direction=south;" vertex="1" parent="1"><mxGeometry x="-390" y="-950" width="140" height="590" as="geometry"/></mxCell></root></mxGraphModel></diagram></mxfile>